<svg xmlns="http://www.w3.org/2000/svg" width="24" height="24" viewBox="0 0 24 24" transform="translate(-12 -3)">
<path fill="#0D1617" fill-opacity="0.33" stroke="transparent" d="M20 20v-3a4 4 0 0 0-4-4h-1a1 1 0 0 1-1-1V6a2 2 0 0 0-2-2v0a2 2 0 0 0-2 2v10l-2.4-3.2A2 2 0 0 0 6 12h-.382C4.724 12 4 12.724 4 13.618v0c0 .251.058.499.17.724L7 20"/>
<path fill="none" stroke="#DAF4F2" stroke-opacity="0.8" stroke-linecap="round" stroke-linejoin="round" stroke-width="2" d="M20 20v-3a4 4 0 0 0-4-4h-1a1 1 0 0 1-1-1V6a2 2 0 0 0-2-2v0a2 2 0 0 0-2 2v10l-2.4-3.2A2 2 0 0 0 6 12h-.382C4.724 12 4 12.724 4 13.618v0c0 .251.058.499.17.724L7 20"/>
</svg>
