<?xml version="1.0" encoding="UTF-8" standalone="no" ?>
<!DOCTYPE svg PUBLIC "-//W3C//DTD SVG 1.1//EN" "http://www.w3.org/Graphics/SVG/1.1/DTD/svg11.dtd">
<svg xmlns="http://www.w3.org/2000/svg" xmlns:xlink="http://www.w3.org/1999/xlink" version="1.1" width="500" height="500" viewBox="0 0 500 500" xml:space="preserve">
<desc>Created with Fabric.js 5.3.0</desc>
<defs>
</defs>
<g transform="matrix(0 2.4450152263 -2.4145376805 0 250 250.6428450974)" id="BBoCIjWeNpD-oepGyYhBG"  >
<path style="stroke: rgb(62,214,165); stroke-width: 0; stroke-dasharray: none; stroke-linecap: butt; stroke-dashoffset: 0; stroke-linejoin: miter; stroke-miterlimit: 4; fill: rgb(255,255,255); fill-rule: nonzero; opacity: 1;"  transform=" translate(-101.733455, -88.10376)" d="M 152.6001 0 L 203.46692 88.10376 L 152.6001 176.20752 L 50.86681 176.20752 L -0.000009999999996068709 88.10376 L 50.86681 0 z" stroke-linecap="round" />
</g>
<g transform="matrix(0 2.2899005837 -2.2613565692 0 249.999990396 250.6428450974)" id="Ry5z70r05mvY0j23QgIPC"  >
<path style="stroke: rgb(62,214,165); stroke-width: 0; stroke-dasharray: none; stroke-linecap: butt; stroke-dashoffset: 0; stroke-linejoin: miter; stroke-miterlimit: 4; fill: rgb(58,18,84); fill-rule: nonzero; opacity: 1;"  transform=" translate(-101.733455, -88.10376)" d="M 152.6001 0 L 203.46692 88.10376 L 152.6001 176.20752 L 50.86681 176.20752 L -0.000009999999996068709 88.10376 L 50.86681 0 z" stroke-linecap="round" />
</g>
<g transform="matrix(0.9341563044 0 0 0.9341563044 97.8707185774 273.1164515745)" id="A_K1mSeeMG6vLmACWiRmX"  >
<path style="stroke: rgb(0,0,0); stroke-width: 1; stroke-dasharray: none; stroke-linecap: round; stroke-dashoffset: 0; stroke-linejoin: round; stroke-miterlimit: 10; fill: none; fill-rule: nonzero; opacity: 1;"  transform=" translate(-87.1479471902, -274.2308431526)" d="M 87.14694719023055 274.2308431526191 L 87.14894719023056 274.2308431526191" stroke-linecap="round" />
</g>
<g transform="matrix(2.5020046551 0 0 2.5136164266 249.999990396 264.2400248225)" id="Izyp3VL5IgeClk7jxXpGn"  >
<path style="stroke: rgb(0,0,0); stroke-width: 0; stroke-dasharray: none; stroke-linecap: butt; stroke-dashoffset: 0; stroke-linejoin: miter; stroke-miterlimit: 4; fill: rgb(255,255,255); fill-rule: nonzero; opacity: 1;"  transform=" translate(0, 0)" d="M 0 40.30374 L -46.14991 -40.30375 L 46.14992 -40.30375 z" stroke-linecap="round" />
</g>
<g transform="matrix(4.3171045627 0 0 4.3171045627 150.382987277 309.3476520153)" id="AI5qpZDcCF9qm15XXpQIf"  >
<path style="stroke: rgb(0,0,0); stroke-width: 0; stroke-dasharray: none; stroke-linecap: butt; stroke-dashoffset: 0; stroke-linejoin: miter; stroke-miterlimit: 4; fill: rgb(255,255,255); fill-opacity: 0.18; fill-rule: nonzero; opacity: 1;"  transform=" translate(0, 0)" d="M -22.9302 -40.36379 L -23.074949999999998 13.320369999999997 L 23.07496 40.363789999999995 z" stroke-linecap="round" />
</g>
<g transform="matrix(4.3171045627 0 0 4.3171045627 349.6169935151 309.3476520153)" id="WecekGZwKx48t5ckYQd7W"  >
<path style="stroke: rgb(0,0,0); stroke-width: 0; stroke-dasharray: none; stroke-linecap: butt; stroke-dashoffset: 0; stroke-linejoin: miter; stroke-miterlimit: 4; fill: rgb(255,255,255); fill-opacity: 0.4; fill-rule: nonzero; opacity: 1;"  transform=" translate(0, 0)" d="M -23.07496 40.36379 L 23.074949999999998 13.325390000000002 L 23.074949999999998 -40.363789999999995 z" stroke-linecap="round" />
</g>
</svg>